<?xml version="1.0" standalone="no"?>
<!DOCTYPE svg PUBLIC "-//W3C//DTD SVG 20010904//EN"
 "http://www.w3.org/TR/2001/REC-SVG-20010904/DTD/svg10.dtd">
<svg version="1.0" xmlns="http://www.w3.org/2000/svg"
 width="767.000000pt" height="767.000000pt" viewBox="0 0 767.000000 767.000000"
 preserveAspectRatio="xMidYMid meet">
<metadata>
Created by potrace 1.14, written by Peter Selinger 2001-2017
</metadata>
<g transform="translate(0.000000,767.000000) scale(0.100000,-0.100000)"
fill="#000000" stroke="none">
<path d="M3617 7460 c-1363 -89 -2543 -926 -3082 -2186 -223 -520 -325 -1180
-270 -1733 71 -707 332 -1350 776 -1911 108 -137 424 -453 564 -564 434 -344
941 -585 1475 -700 285 -62 378 -70 755 -71 381 0 439 5 739 66 1065 216 2000
943 2486 1934 164 334 284 724 352 1140 17 103 16 625 -1 785 -91 848 -427
1568 -1010 2164 -345 352 -719 610 -1156 796 -500 214 -1090 315 -1628 280z
m-1144 -699 c191 -49 318 -163 373 -335 34 -105 35 -251 5 -370 -102 -391
-486 -756 -914 -867 -112 -29 -296 -36 -397 -15 -398 84 -544 484 -330 907 61
121 113 193 214 297 190 196 413 327 650 381 114 27 298 27 399 2z m2367
-1702 c253 -40 498 -253 584 -507 67 -197 56 -398 -33 -586 -97 -205 -274
-354 -497 -418 -103 -29 -295 -31 -394 -4 -284 78 -499 299 -566 584 -26 107
-21 267 10 375 69 235 212 402 429 502 143 66 287 82 467 54z m-1280 -1351
c57 -112 118 -196 217 -299 178 -185 398 -303 668 -360 89 -19 362 -16 454 5
321 72 568 230 759 484 30 39 56 72 57 72 17 0 316 -72 463 -111 212 -57 673
-208 897 -294 83 -32 152 -59 154 -61 7 -6 -60 -255 -101 -374 -93 -270 -264
-623 -331 -685 -198 -181 -343 -299 -502 -407 -712 -484 -1625 -645 -2477
-437 -562 137 -1065 423 -1468 836 -117 119 -254 278 -313 363 -168 243 -270
433 -370 685 -59 150 -124 361 -114 371 11 11 354 93 557 134 444 88 967 151
1322 158 l87 2 41 -82z"/>
<path d="M4567 4895 c-145 -30 -300 -135 -382 -260 -219 -330 -68 -780 305
-912 99 -35 246 -43 340 -19 228 58 403 235 456 461 30 130 7 301 -58 420 -32
59 -103 148 -147 183 -55 44 -157 98 -221 116 -78 23 -211 28 -293 11z m288
-76 c166 -52 297 -180 356 -349 33 -93 33 -248 1 -342 -134 -388 -612 -504
-903 -218 -218 214 -218 563 -1 776 146 145 351 194 547 133z"/>
</g>
</svg>
