<?xml version="1.0" encoding="UTF-8"?>
<svg id="a" data-name="Layer 1" xmlns="http://www.w3.org/2000/svg" xmlns:xlink="http://www.w3.org/1999/xlink" viewBox="0 0 269.46904 98.814">
  <defs>
    <linearGradient id="b" x1="426.75072" y1="-632.71018" x2="416.73341" y2="-614.04148" gradientTransform="translate(-413.451 -579.186) scale(1 -1)" gradientUnits="userSpaceOnUse">
      <stop offset="0" stop-color="#0070b6"/>
      <stop offset="1" stop-color="#1d2c5e"/>
    </linearGradient>
    <linearGradient id="e" x1="548.92603" y1="-594.57245" x2="561.64124" y2="-580.94848" gradientTransform="translate(-413.451 -579.186) scale(1 -1)" gradientUnits="userSpaceOnUse">
      <stop offset="0" stop-color="#0070b6"/>
      <stop offset="1" stop-color="#1d2c5e"/>
    </linearGradient>
    <linearGradient id="i" x1="493.45284" y1="-617.2861" x2="491.93654" y2="-604.54776" gradientTransform="translate(-413.451 -579.186) scale(1 -1)" gradientUnits="userSpaceOnUse">
      <stop offset="0" stop-color="#0070b6"/>
      <stop offset="1" stop-color="#1d2c5e"/>
    </linearGradient>
    <linearGradient id="k" x1="632.34744" y1="-614.834" x2="631.74191" y2="-603.33601" gradientTransform="translate(-413.451 -579.186) scale(1 -1)" gradientUnits="userSpaceOnUse">
      <stop offset="0" stop-color="#125d9e"/>
      <stop offset="1" stop-color="#1d2c5e"/>
    </linearGradient>
    <linearGradient id="p" x1="589.91169" y1="-598.26107" x2="576.56824" y2="-619.4891" gradientTransform="translate(-413.451 -579.186) scale(1 -1)" gradientUnits="userSpaceOnUse">
      <stop offset="0" stop-color="#125d9e"/>
      <stop offset="1" stop-color="#1d2c5e"/>
    </linearGradient>
    <linearGradient id="u" x1="471.8214" y1="-632.30951" x2="480.91942" y2="-650.20246" gradientTransform="translate(-413.45099 -579.18597) scale(1 -1)" gradientUnits="userSpaceOnUse">
      <stop offset="0" stop-color="#105fa1"/>
      <stop offset="1" stop-color="#1d2c5e"/>
    </linearGradient>
    <linearGradient id="x" x1="437.49209" y1="-626.20213" x2="448.0216" y2="-650.61155" gradientTransform="translate(-413.451 -579.186) scale(1 -1)" gradientUnits="userSpaceOnUse">
      <stop offset="0" stop-color="#105fa1"/>
      <stop offset="1" stop-color="#1d2c5e"/>
    </linearGradient>
    <linearGradient id="bv" x1="639.70599" y1="1750.76997" x2="655.63499" y2="1750.76997" gradientTransform="translate(-569.45099 -1694.68597)" gradientUnits="userSpaceOnUse">
      <stop offset="0" stop-color="#3c5aa6"/>
      <stop offset=".9331" stop-color="#2b73b9"/>
      <stop offset="1" stop-color="#2a75bb"/>
    </linearGradient>
    <linearGradient id="bz" x1="573.17702" y1="1742.57049" x2="838.92004" y2="1742.57049" gradientTransform="translate(-569.451 -1694.686)" gradientUnits="userSpaceOnUse">
      <stop offset="0" stop-color="#3c5aa6"/>
      <stop offset=".9331" stop-color="#2b73b9"/>
      <stop offset="1" stop-color="#2a75bb"/>
    </linearGradient>
  </defs>
  <polygon id="c" data-name="polygon16" points="0 36.557 12.026 56.858 16.827 52.279 3.738 32.76 0 36.557" style="fill: url(#b); stroke-width: 0px;"/>
  <polygon id="d" data-name="polygon18" points="178.558 20.602 178.09301 23.278 183.84501 21.422 183.12799 18.144 178.558 20.602" style="fill: #0071b9; stroke-width: 0px;"/>
  <polygon id="f" data-name="polygon25" points="145.04399 2.326 126.536 23.55 131.922 22.001 149.543 0 145.04399 2.326" style="fill: url(#e); stroke-width: 0px;"/>
  <polygon id="g" data-name="polygon27" points="244.056 31.345 248.599 28.924 247.301 40.3 244.056 31.345" style="fill: #1d2c5e; stroke-width: 0px;"/>
  <polygon id="h" data-name="polygon29" points="215.82 38.64 219.85801 39.467 225.012 36.965 220.53901 35.296 215.82 38.64" style="fill: #1d2c5e; stroke-width: 0px;"/>
  <polygon id="j" data-name="polygon36" points="76.598 26.561 77.244 39.744 82.88 37.467 81.193 24.096 76.598 26.561" style="fill: url(#i); stroke-width: 0px;"/>
  <polygon id="l" data-name="polygon43" points="220.19001 22.627 215.654 25.075 215.82 38.64 220.38601 36.3 221.819 29.734 220.19001 22.627" style="fill: url(#k); stroke-width: 0px;"/>
  <polygon id="m" data-name="polygon45" points="219.56701 39.505 214.57199 83.875 222.557 82.3 224.12101 37.112 219.56701 39.505" style="fill: #312370; stroke-width: 0px;"/>
  <polygon id="n" data-name="polygon47" points="229.34501 86.002 229.487 92.019 244.81501 96.904 249.377 94.486 234.33699 82.834 219.10199 81.496 214.57199 83.875 229.34501 86.002" style="fill: #21386e; stroke-width: 0px;"/>
  <polygon id="o" data-name="polygon49" points="172.48301 75.419 176.25 73.39 178.651 77.826 182.20099 75.875 182.90799 81.723 205.19201 85.675 209.64499 83.226 178.917 64.503 157.11901 68.239 152.86699 72.28 172.48301 75.419" style="fill: #21386e; stroke-width: 0px;"/>
  <polygon id="q" data-name="polygon56" points="165.387 20.828 160.926 23.283 152.86699 72.28 157.381 69.935 165.11699 42.424 165.387 20.828" style="fill: url(#p); stroke-width: 0px;"/>
  <polygon id="r" data-name="polygon58" points="129.78901 27.395 126.235 29.288 126.534 30.473 134.99199 25.1 131.29599 21.134 126.536 23.55 129.78901 27.395" style="fill: #1d2c5e; stroke-width: 0px;"/>
  <polygon id="s" data-name="polygon60" points="139.506 85.272 103.166 67.271 107.728 63.822 144.028 82.83 139.506 85.272" style="fill: #21386e; stroke-width: 0px;"/>
  <polygon id="t" data-name="polygon62" points="106.581 18.277 101.074 28.72 106.893 26.958 111.092 15.83 106.581 18.277" style="fill: #1d2c5e; stroke-width: 0px;"/>
  <path id="v" data-name="path69" d="M56.633,61.419l-4.646,3.189s.986,5.184,2.257,8.79c1.278,3.619,4.32,6.526,4.32,6.526,1.954,1.91,4.349,3.3,7.021,4.08,5.139,1.479,10.939.515,15.918-2.66,1.302-.824,3.069-2.143,4.155-3.184-4.894,2.96999-29.025-16.741-29.025-16.741Z" style="fill: url(#u); stroke-width: 0px;"/>
  <polygon id="w" data-name="polygon71" points="81.496 38.669 85.736 85.445 103.06 82.882 107.695 80.453 86.196 35.865 81.773 37.355 77.244 39.744 81.496 38.669" style="fill: #1d2c5e; stroke-width: 0px;"/>
  <polygon id="y" data-name="polygon78" points="16.55 54.916 35.906 98.814 54.295 92.882 58.785 89.864 20.617 49.929 15.841 52.791 12.026 56.858 16.55 54.916" style="fill: url(#x); stroke-width: 0px;"/>
  <path id="z" data-name="path80" d="M208.381,75.627l.25999,2.155c1.584-.178,3.248-.383,4.672-.89,1.66-.568,5.26601-2.174,6.63699-3.357-.51401.187-8.963,2.377-11.569,2.092" style="fill: #1d2c5e; stroke-width: 0px;"/>
  <path id="aa" data-name="path82" d="M143.32201,64.418l.69,3.47c3.722-.554,6.91701-1.931,10.058-3.819,1.97099-1.174,4.13499-2.945,4.81799-3.417-.48199.308-15.56599,3.766-15.56599,3.766Z" style="fill: #1d2c5e; stroke-width: 0px;"/>
  <g id="ab" data-name="g84">
    <path id="ac" data-name="path86" d="M40.938,94.652l-1.437-3.193-18.352-40.959-.377-.84-.834.385-.557.256-3.267,1.604c-.482-.808-1.282-2.162-1.838-3.101l-7.387-12.484-1.932-3.259,3.196-2.025c3.023-1.928,6.437-3.709,10.151-5.295,7.395-3.15,14.943-4.816,21.826-4.816,2.264,0,4.455.183,6.513.541,3.431.391,6.604,1.517,9.225,3.263,3.906,2.184,6.981,5.572,8.718,9.58,1.426,3.294,1.704,7.152.798,11.154l-.532,2.351,1.953-1.416c1.316-.955,2.746-1.771,4.25-2.426,2.6-1.099,5.29-1.66,7.985-1.66,2.551,0,4.963.505,7.17,1.498l1.423.638-.143-1.553-.619-6.711-.1-1.064-1.036.269-3.109.806-.545-11.427,22.774-7.276-.184,8.881,1.715.44,4.974-9.532,14.897,13.212.621.553.606-.57c2.041-1.918,4.46001-3.457,7.189-4.574l1.14-.466-.78101-.953-2.686-3.274L149.44898,1.49501l8.957,13.365-13.711,7.37-3.045,1.638,3.457.073c6.5.137,12.256,2.887,16.205,7.742l1.42799,1.761.92,1.131-1.528,1.622-1.019,1.082-3.42599,3.654-.63699.679.689.622,3.211,2.891,1.242,1.117.26601-1.648,1.23199-7.627.315-1.958.00999.011.32401-2,1.839-11.26h17.188l.13-.759.321-1.928h14.785l3.582,22.621.233,1.465,1.2-.871c1.451-1.054,3.054-1.921,4.76601-2.576,2.27901-.86,4.625-1.299,6.967-1.299,2.78799,0,5.495.644,7.836,1.861.062.045.14999.103.27.151l1.11099.446.131-1.192.26801-2.465.088-.808-.795-.177-2.998-.67-.146-11.792,22.85699,5.031,1.717,8.485,1.77499.035,1.771-7.302,19.06001,4.635-19.478,58.703-13.938-4.377-.099-5.407-.01401-.775-.769-.108-13.908-1.963.787-7.069.187-1.682-1.505.771c-.713.363-1.403.668-2.05499.908-2.274.86-4.603,1.295-6.922,1.295-.67101,0-1.345-.037-2.00101-.111l-1.188-.133.186,1.18.979,6.217-20.291-3.579-1.063-9.226-.342-2.957-1.367,2.643-2.336,4.505-4.30099-7.94-1.293-2.385-.408,2.68-.937,6.146-17.784-2.799,1.379-8.435.315-1.934-1.681,1.005c-2.911,1.745-6.254,3.058-10.217,4.015-1.38499.338-2.832.572-4.30499.694l-.834.07v16.755l-35.02299-17.309-1.316-.649.001,1.467.024,14.804-15.659,2.307-.658-7.109-.178-1.902-1.365,1.338c-2.069,2.025-4.4,3.595-6.927,4.667-2.585,1.099-5.252,1.655-7.925,1.655-2.669,0-5.177-.558-7.455-1.649-4.22-2.03-7.264-5.713-8.57-10.36-.62202-2.18301-.79102-4.48801-.50202-6.85401l.309-2.52-1.838,1.75c-1.296,1.23-2.692,2.405-4.152,3.484l-.495.365.156.595,5.275,20.248.932,3.593-3.532,1.123-9.932,3.18-3.324,1.07h0ZM45.396,40.296c-.512,0-1.041.047-1.574.143l-.676.13-.998.192.301.972.196.632,2.84,9.293.284.893.422,1.34,1.05-.934.697-.621c2.753-2.474,3.718-4.986,3.137-8.154-.366-1.901-1.838-2.848-2.684-3.244-.884-.426-1.896-.642-2.995-.642h0ZM121.531,40.601l-1.775,1.728-4.675,4.543-1.018.989,1.325.512,5.014,1.935,1.54.593-.318-1.618c-.414-2.09-.522-4.182-.328-6.217l.235-2.465h0ZM141.94701,35.434c-1.939,0-3.815.834-5.14799,2.286-2.022,2.208-2.41499,5.465-.97701,8.103l.381.715.61301,1.143.86301-.966.55499-.615,6.858-7.83.539-.62.86501-.994-1.23399-.457-.769-.284c-.80701-.316-1.67101-.481-2.54601-.481h-.00002Z" style="fill: #ffcb05; stroke-width: 0px;"/>
  </g>
  <path id="ad" data-name="path88" d="M152.438,47.032c-.06599.058-.127.132-.179.208.069-.063.136-.118.207-.176l-.028-.032Z" style="fill: #7d7f68; stroke-width: 0px;"/>
  <polygon id="ae" data-name="polygon90" points="158.351 41.555 161.776 37.901 160.60399 39.145 160.638 38.988 159.60199 40.081 156.18 43.724 159.38601 46.608 159.967 43.016 161.56301 44.445 158.351 41.555" style="fill: #7d7f68; stroke-width: 0px;"/>
  <polygon id="af" data-name="polygon92" points="158.351 41.555 161.56301 44.445 162.793 36.819 161.776 37.901 158.351 41.555" style="fill: #7d7f68; stroke-width: 0px;"/>
  <path id="ag" data-name="path94" d="M115.715,47.522l.052.022-.052-.022Z" style="fill: #7d7f68; stroke-width: 0px;"/>
  <path id="ah" data-name="path96" d="M134.677,50.694c.274.277.021.078.328.288l2.095-1.477c-.311-.22-.619-.456-.90199-.72-3.03999-2.77-2.25-9-.278-12.41-5.19099,4.188-4.92101,10.635-1.243,14.319" style="fill: #c7a008; stroke-width: 0px;"/>
  <path id="ai" data-name="path98" d="M159.967,54.182c-3.46001,2.862-7.40401,4.728-12.61501,5.987-1.13901.261-2.255.451-3.347.547-8.271.813-15.21001-2.985-17.843-9.145-.328-.746-.581-1.501-.772-2.307-1.218-5.188-.178-9.824,2.385-13.458.25401-.352.521-.689.801-1.032-.131.112-.265.208-.37399.313-.985.877-1.857,1.838-2.598,2.888-2.566,3.634-3.606,8.273-2.377,13.453.188.806.437,1.572.758,2.301,2.634,6.174,9.575,9.97,17.839,9.163,1.101-.106,2.213-.288,3.353-.563,5.217-1.259,9.158-3.117,12.618-5.979.845-.695,1.66-1.453,2.451-2.282l-.073-.07c-.07899.068-.138.127-.20599.184" style="fill: #c7a008; stroke-width: 0px;"/>
  <polygon id="aj" data-name="polygon100" points="101.678 38.499 110.919 25.513 110.544 25.167 101.628 37.691 101.678 38.499" style="fill: #c7a008; stroke-width: 0px;"/>
  <polygon id="ak" data-name="polygon102" points="162.793 36.819 161.56301 44.445 159.967 43.016 159.38601 46.608 156.18 43.724 159.60199 40.081 160.638 38.988 160.60399 39.145 161.776 37.901 162.793 36.819" style="fill: #c7a008; stroke-width: 0px;"/>
  <polygon id="al" data-name="polygon104" points="151.374 15.429 154.61 14.041 148.695 6.45 146.75699 9.157 151.374 15.429" style="fill: #c7a008; stroke-width: 0px;"/>
  <path id="am" data-name="path106" d="M61.785,34.235c-14.936-18.195-41.849-8.415-51.522.096l.378.653c2.224-1.276,4.569-2.43,7.036-3.465,9.608-4.104,18.768-5.307,26.112-4.022,2.596.298,5.346,1.068,7.739,2.67,3.313,1.855,5.824,4.494,7.292,7.876,2.605,5.99.31,13.955-5.825,20.623,7.695-7.061,12.96-13.817,8.79-24.431Z" style="fill: #c7a008; stroke-width: 0px;"/>
  <path id="an" data-name="path108" d="M92.257,55.433c-.07-.33-.14-.665-.247-.988-.841-3.025-2.648-5.44-5.017-7.047-3.834-2.604-9.186-3.139-14.52-.887-2.806,1.213-5.246,3.08-7.175,5.31,1.483-1.276,3.178-2.339,5.009-3.131,5.322-2.259,10.674-1.725,14.521.876,2.369,1.609,4.161,4.023,5.02,7.044.095.324.169.664.243,1.005.228,1.15.334,2.313.29,3.504-.111,3.482-1.402,6.988-3.549,9.982-.346.474-.71.916-1.087,1.354,1.222-1.055,2.313-2.222,3.245-3.529,2.156-2.975,3.444-6.488,3.558-9.991.048-1.169-.049-2.351-.291-3.502" style="fill: #c7a008; stroke-width: 0px;"/>
  <path id="ao" data-name="path110" d="M77.55,50.992c-.021.033,2.167-2.168,2.142-2.168-2.737-.104-3.894,2.477-3.989,2.68.562-.272,1.182-.449,1.847-.512" style="fill: #c7a008; stroke-width: 0px;"/>
  <path id="ap" data-name="path112" d="M82.705,54.147c.111.371.169.74.169,1.144,0,.57-.127,1.117-.358,1.621.438-.229,3.603-1.764,2.376-5.016.066.1-2.266,2.241-2.187,2.251" style="fill: #c7a008; stroke-width: 0px;"/>
  <path id="aq" data-name="path114" d="M70.255,55.957c0-1.338,2.291-4.584,3.005-5.667-3.618,2.3-5.176,5.404-5.176,7.849,0,4.189,3.681,7.558,8.082,7.558,2.082,0,5.895-1.101,8.389-5.137-1.307.86-4.629,2.918-6.372,2.918-4.4-.001-7.928-3.309-7.928-7.521" style="fill: #c7a008; stroke-width: 0px;"/>
  <polygon id="ar" data-name="polygon116" points="101.227 59.791 101.284 76.746 103.975 76.9 103.443 57.572 101.227 59.791" style="fill: #c7a008; stroke-width: 0px;"/>
  <polygon id="as" data-name="polygon118" points="85.781 27.511 85.836 29.017 98.589 25.22 99.534 41.46 101.662 38.478 101.208 22.181 85.781 27.511" style="fill: #c7a008; stroke-width: 0px;"/>
  <polygon id="at" data-name="polygon120" points="124.332 33.326 112.353 22.332 110.919 25.513 121.462 35.418 124.332 33.326" style="fill: #c7a008; stroke-width: 0px;"/>
  <path id="au" data-name="path122" d="M122.511,53.814l-14.064-4.65-2.049,2.164,14.011,5.607c1.589,2.994,3.997,5.559,7.029,7.434,2.93501,1.795,6.28899,2.87,9.841,3.211v6.92l2.172,1.084.687-10.396-17.627-11.374h.00002Z" style="fill: #c7a008; stroke-width: 0px;"/>
  <path id="av" data-name="path124" d="M145.095,51.858c3.45399-.833,5.446-2.635,7.161-4.618-1.287,1.056-7.739,2.462-8.823,2.829l-2.125,2.263c.97099.086,2.595-.176,3.787-.474" style="fill: #c7a008; stroke-width: 0px;"/>
  <path id="aw" data-name="path126" d="M138.813,27.943c-6.369.834-9.688,6.181-10.237,6.832,2.35201-1.987,5.3-3.462,8.62-4.248,7.881-1.906,14.83.497,19.125,5.807l2.658-2.25c-4.254-5.218-12.287-8.041-20.166-6.141" style="fill: #c7a008; stroke-width: 0px;"/>
  <path id="ax" data-name="path128" d="M160.174,53.998c.76801-.646,2.133-1.299,2.85899-2.06l-8.528-7.62c-.653.781-1.245,2.068-2.04201,2.745l7.711,6.935h.00002Z" style="fill: #c7a008; stroke-width: 0px;"/>
  <path id="ay" data-name="path130" d="M203.938,74.418c-8.94701-7.354-8.412-23.123-4.02-28.126l-3.942-24.715-8.62199,1.113-.384,2.177h6.524l3.455,22.424c-4.396,5.019-6.52,11.743-5.05099,17.899,1.13699,4.757,4.05901,8.607,8.265,10.834.423.232.86.434,1.30701.625l.056.329,2.565.405c0-.001.267-2.751-.153-2.965h-.00002Z" style="fill: #c7a008; stroke-width: 0px;"/>
  <polygon id="az" data-name="polygon132" points="169.55001 25.214 169.179 27.392 179.013 27.392 181.90999 43.273 184.092 41.069 181.79799 24.304 169.55001 25.214" style="fill: #c7a008; stroke-width: 0px;"/>
  <polygon id="ba" data-name="polygon134" points="186.385 56.044 183.21 64.246 183.99601 66.38 188.53701 53.889 186.385 56.044" style="fill: #c7a008; stroke-width: 0px;"/>
  <polygon id="bb" data-name="polygon136" points="176.956 50.878 174.76999 53.061 172.42701 67.875 174.67099 68.732 176.956 50.878" style="fill: #c7a008; stroke-width: 0px;"/>
  <path id="bc" data-name="path138" d="M221.123,46.146c1.287.919,2.38499,2.082,3.211,3.465.65199,1.061,1.145,2.249,1.46001,3.553,1.071,4.453-.21001,9.269-3.041,13.133-.285.392-.599.771-.899,1.143,1.14999-.989,15.118-11.292,1.47099-24.824-15.00999-4.948-20.692,4.845-21.22301,5.466,1.586-1.348,3.416-2.463,5.39799-3.221,5.08-1.924,10.078-1.257,13.623,1.285" style="fill: #c7a008; stroke-width: 0px;"/>
  <path id="bd" data-name="path140" d="M213.556,47.122c.04201.095,2.155-2.202,2.198-2.202-2.67101.11-3.95399,1.399-3.82201,1.994-.16.231-.28999.46-.392.713.57001-.284,1.62399-.502,2.01601-.505" style="fill: #c7a008; stroke-width: 0px;"/>
  <path id="be" data-name="path142" d="M218.578,50.479c.09599.358.142.733.134,1.136-.024.516-.158.989-.354,1.43.40601-.183,3.64301-1.188,2.407-4.75.032.101-2.222,2.186-2.187,2.184" style="fill: #c7a008; stroke-width: 0px;"/>
  <path id="bf" data-name="path144" d="M211.487,61.789c3.021.129,6.362-1.727,8.758-5.007-6.14799,1.261-12.61099-8.977-11.963-9.979-2.323,1.684-4.379,4.932-4.47301,7.202-.16,4.209,3.267,7.608,7.67799,7.784" style="fill: #c7a008; stroke-width: 0px;"/>
  <polygon id="bg" data-name="polygon146" points="245.178 88.464 246.61901 89.428 264.20699 36.643 251.04399 33.601 250.87899 36.693 261.497 39.049 245.178 88.464" style="fill: #c7a008; stroke-width: 0px;"/>
  <polygon id="bh" data-name="polygon148" points="224.291 27.943 224.40599 30.891 238.401 33.702 243.78901 59.255 245.97001 57.057 240.83699 31.241 224.291 27.943" style="fill: #c7a008; stroke-width: 0px;"/>
  <polygon id="bi" data-name="polygon150" points="235.06099 57.062 231.208 78.854 233.42701 79.573 237.252 54.916 235.06099 57.062" style="fill: #c7a008; stroke-width: 0px;"/>
  <polygon id="bj" data-name="polygon152" points="53.445 86.85 46.899 63.117 44.503 64.793 50.57 87.53 53.445 86.85" style="fill: #c7a008; stroke-width: 0px;"/>
  <path id="bk" data-name="path154" d="M51.746,51.162c-1.51,1.602-4.857,4.715-6.764,5.943l-1.158-3.718-2.536-8.152-1.612-5.519-1.573,2.019,1.606,5.527,2.536,8.146,1.153,3.729c2.611-1.682,6.409-4.839,8.348-7.975" style="fill: #c7a008; stroke-width: 0px;"/>
  <path id="bl" data-name="path156" d="M144.498,37.129c-2.06599-.795-4.992-.556-6.57201,1.173-.367.401-1.08099,1.424-1.30701,1.881,1.52901-1.216,4.252-1.479,6.037-.835l1.842-2.219h.00002Z" style="fill: #7d7f68; stroke-width: 0px;"/>
  <path id="bm" data-name="path158" d="M49.857,44.493c-.232-1.22-1.427-2.189-2.013-2.458-1.048-.506-2.861-.585-4.185-.344.238.822.511,1.786.627,2.181.537.075,1.419.235,1.882.446.581.28,1.597.94,1.833,2.168.316,1.639.233,3.171-.45,4.415,1.873-1.838,2.782-3.837,2.306-6.408" style="fill: #7d7f68; stroke-width: 0px;"/>
  <g id="bn" data-name="g160">
    <g id="bo" data-name="g162">
      <path id="bp" data-name="path164" d="M53.137,44.459c-.899-4.824-7.207-7.483-13.461-4.072l1.612,5.521,2.536,8.159,1.157,3.716c4.692-3.017,9.408-6.642,8.156-13.324ZM46.925,51.877c-.683-2.229-2.181-7.042-2.181-7.042.007.022-.295-1.03-.653-2.234,1.326-.237,2.6-.141,3.648.363.586.279,1.616.93,1.841,2.164.518,2.774-.417,4.754-2.655,6.749Z" style="fill: #3c5aa6; stroke-width: 0px;"/>
    </g>
  </g>
  <g id="bq" data-name="g166">
    <g id="br" data-name="g168">
      <path id="bs" data-name="path170" d="M147.77201,36.805c-3.496-3.207-8.93001-2.958-12.119.535-3.20799,3.487-2.95599,8.924.545,12.118.285.275.593.5.903.721l11.27701-12.771c-.19901-.208-.399-.415-.606-.603ZM137.12401,45.788c-1.103-2.025-.88-4.596.769-6.398,1.586-1.728,4.01601-2.22,6.088-1.421l-6.85699,7.819Z" style="fill: #3567b0; stroke-width: 0px;"/>
    </g>
  </g>
  <polygon id="bt" data-name="polygon172" points="162.84 35.403 156.59501 41.42 162.528 46.748 162.84 35.403" style="fill: #1e2d5f; stroke-width: 0px;"/>
  <path id="bu" data-name="path174" d="M220.748,48.295c.095.379.144.754.132,1.153-.104,2.386-2.347,4.228-5.021,4.103-2.672-.092-4.771-2.12-4.666-4.5.09-2.231,2.078-3.997,4.533-4.11-.466-.105-.953-.16-1.461-.178-4.47301-.193-8.129,2.975-8.283,6.919-.172,4.218,3.209,7.657,7.61101,7.848,4.479.179,8.133-3,8.311-7.198.052-1.455-.37801-2.85-1.15601-4.037" style="fill: #3466af; stroke-width: 0px;"/>
  <path id="bw" data-name="path183" d="M85.053,53.112c0,2.396-2.179,4.316-4.848,4.316-2.676,0-4.847-1.921-4.847-4.316,0-2.233,1.91-4.074,4.358-4.288-.469-.085-.957-.134-1.461-.134-4.472,0-8,3.317-8,7.267,0,4.215,3.529,7.521,7.928,7.521,4.476,0,8.001-3.308,8.001-7.521,0-1.459-.482-2.834-1.311-3.966.112.341.18.719.18,1.121" style="fill: url(#bv); stroke-width: 0px;"/>
  <g id="bx" data-name="g185">
    <g id="by" data-name="g187">
      <path id="ca" data-name="path196" d="M248.569,28.912l-1.98599,8.185-1.834-9.063-24.55901-5.406.172,13.656,3.701.83-.267,2.463c-.048-.019-.078-.048-.104-.069-4.588-2.421-10.276-2.669-15.629-.647-1.79601.687-3.463,1.59-4.97501,2.688l-3.705-23.388h-16.33299l-.45,2.689h-17.19099l-1.963,12.023-1.42599-1.761c-4.166-5.118-10.205-7.937-16.895-8.077l14.59599-7.845L149.54302.001l-18.38901,21.189,3.174,3.87c-2.875,1.175-5.38699,2.795-7.468,4.752l-15.767-13.989-5.513,10.566.212-10.154-24.651,7.875.632,13.244,4.194-1.088.62,6.712c-4.792-2.152-10.552-2.099-15.894.158-1.583.69-3.059,1.538-4.419,2.524.924-4.089.705-8.12-.853-11.715-1.84-4.248-5.078-7.759-9.048-9.974-2.783-1.854-6.1-3.009-9.571-3.402-8.53-1.491-18.773.04-28.854,4.335-3.706,1.581-7.163,3.375-10.281,5.361l-3.941,2.499,2.38,4.019,7.386,12.483s2.26,3.825,2.275,3.823l3.994-1.963.557-.256,18.353,40.961,1.77,3.937,4.098-1.32,9.93-3.181,4.352-1.383-1.148-4.43-5.274-20.245c1.517-1.123,2.933-2.314,4.24-3.561-.295,2.419-.14,4.868.526,7.212,1.379,4.908,4.593,8.785,9.053,10.933,4.817,2.315,10.694,2.321,16.131.015,2.727-1.157,5.152-2.845,7.207-4.854l.749,8.063,17.39-2.561-.027-15.593,36.33701,17.959v-17.389c1.45799-.122,2.946-.352,4.442-.719,4.002-.967,7.427-2.293,10.47-4.116l-1.526,9.339,19.592,3.083,1.075-7.05,5.117,9.453,3.12801-6.027,1.14301,9.896,22.213,3.916-1.17799-7.473c3.041.344,6.246-.064,9.342-1.232.733-.271,1.457-.601,2.14999-.955l-.88499,7.951,14.784,2.086.11,6.063,15.416,4.839,20.07101-60.495-20.89999-5.08-.00005.00002ZM161.776,37.902l1.019-1.083-1.231,7.627-3.211-2.892,3.423-3.652ZM148.758,6.746l5.382,7.311-15.38699,7.628-1.063-1.615s11.06799-13.324,11.06799-13.324ZM46.869,63.123l6.139,23.555-9.936,3.174-20.389-45.534c-1.109.583-3.157,1.561-5.038,2.483l-7.383-12.472c2.936-1.875,6.156-3.537,9.581-4.984,9.612-4.088,18.783-5.308,26.118-4.012,2.595.292,5.342,1.057,7.748,2.654,3.301,1.859,5.826,4.505,7.282,7.875,3.551,8.206-2.381,20.015-14.122,27.261ZM92.55,58.931c-.114,3.507-1.402,7.021-3.558,9.994-2.051,2.875-4.916,5.248-8.287,6.699-8.62,3.652-17.24,0-19.543-8.184-2.231-7.913,2.96-17.333,11.312-20.931,5.334-2.252,10.686-1.718,14.52.887,2.368,1.606,4.174,4.021,5.017,7.047.106.321.176.658.247.988.241,1.153.338,2.335.29199,3.5ZM139.45101,75.584l-36.055-18.033.064,18.894-9.327,1.272-.65-7.788c2.88-4.938,3.933-10.757,2.43-16.093-.825-2.933-2.349-5.479-4.42-7.519l-1.338-15.879-4.188,1.086-.185-4.015,14.978-4.46.918,15.448,11.034-15.503,10.787,10.273-15.085,15.892,14.172,5.606c1.58299,3,3.998,5.549,7.028,7.427,2.929,1.808,6.285,2.877,9.83501,3.228l.002,10.164h-.00002ZM120.73001,49.458l-5.015-1.935,4.675-4.544c-.2,2.086-.097,4.267.34,6.479ZM159.967,54.182c-3.46001,2.862-7.40401,4.728-12.61501,5.987-1.13901.261-2.255.451-3.347.547-8.271.813-15.21001-2.985-17.843-9.145-.328-.746-.58099-1.501-.772-2.307-1.218-5.188-.17799-9.825,2.38499-13.458.73801-1.06,1.614-2.026,2.59801-2.896,2.414-2.154,5.496-3.72,9-4.562,7.879-1.9,14.81799.505,19.07201,5.725l-15.01399,15.98101c1.01801.192,2.63699-.075,3.832-.361,3.576-.872,5.577-2.77,7.34-4.838l6,5.398,1.81799,1.642c-.78799.815-1.616,1.584-2.45399,2.287ZM191.82,75.50899l-3.26601-21.635-4.619,11.935-6.916-14.917h-.078l-2.733,17.275-11.52699-2.006,1.621-9.64c.435-.409.86301-.819,1.284-1.252l3.73599-3.847-3.631-3.252,3.858-22.957h11.63l2.911,15.892,3.26199-18.417h8.319l3.452,22.438c-4.39301,5.004-6.52699,11.731-5.05901,17.885,1.13499,4.771,4.067,8.613,8.27,10.857.423.213.86099.424,1.313.606l.44,2.909-12.267-1.874h.00002ZM220.545,68.46c-1.271.905-2.67,1.674-4.174,2.229-2.96899,1.131-5.922,1.366-8.55299.843-1.834-.362-3.506-1.077-4.961-2.112-2.314-1.674-4.01801-4.146-4.769-7.25-.87601-3.729-.069-7.711,1.937-11.199,1-1.705,2.283-3.307,3.80099-4.688,1.69299-1.518,3.65601-2.761,5.84-3.601,5.08301-1.896,10.09599-1.242,13.625,1.295,1.298.92,2.375,2.091,3.224,3.452.644,1.075,1.144,2.26,1.44701,3.554,1.08099,4.478-.20599,9.274-3.03101,13.138-1.21001,1.647-2.685,3.127-4.386,4.339ZM246.5,88.85199l-8.524-2.539-.743-31.426-4.287,24.243-9.299-1.484.666-6.98c6.07201-5.131,9.291-13.225,7.52699-20.56-.77499-3.248-2.44501-6.076-4.799-8.226l.785-8.232-3.51601-.936.235-4.395,16.021,3.22,5.38699,25.546,5.52499-22.903,12.18799,2.693-17.166,51.979h.00003Z" style="fill: url(#bz); stroke-width: 0px;"/>
    </g>
  </g>
  <g id="cb" data-name="flowRoot3115">
    <path id="cc" data-name="path3084" d="M253.50462,91.83035v-2.37245h-.88623v-.31743h2.13209v.31743h-.8899v2.37245h-.35596Z" style="stroke-width: 0px;"/>
    <path id="cd" data-name="path3086" d="M255.10643,91.83035v-2.68988h.53577l.63669,1.90457c.05871.17737.10155.31009.12844.39816.03053-.09786.07827-.24159.14312-.43119l.64403-1.87154h.47889v2.68988h-.34312v-2.25135l-.78164,2.25135h-.3211l-.77797-2.28988v2.28988h-.34312Z" style="stroke-width: 0px;"/>
  </g>
</svg>